<svg id="Layer_1" data-name="Layer 1" xmlns="http://www.w3.org/2000/svg" viewBox="0 0 815.34 166.98"><defs><style>.cls-1,.cls-10,.cls-3{font-size:122px;}.cls-1{fill:#8b1739;letter-spacing:-0.01em;}.cls-1,.cls-10,.cls-3,.cls-4{font-family:Montserrat-Bold, Montserrat;font-weight:700;}.cls-10,.cls-2{fill:#169948;}.cls-2{letter-spacing:-0.01em;}.cls-3,.cls-9{fill:#179948;}.cls-4{opacity:0.6;font-size:35px;fill:#231f20;letter-spacing:-0.01em;}.cls-5{letter-spacing:-0.01em;}.cls-6{letter-spacing:-0.01em;}.cls-7{letter-spacing:-0.01em;}.cls-8{letter-spacing:-0.26em;}.cls-10{letter-spacing:0em;}.cls-11{letter-spacing:-0.01em;}.cls-12{letter-spacing:0em;}.cls-13{letter-spacing:-0.01em;}.cls-14{letter-spacing:0em;}.cls-15{fill:#159948;}</style></defs><title>sa0007</title><text class="cls-1" transform="translate(171.39 106.8) scale(1.05 1)">sa<tspan class="cls-2" x="133.47" y="0" xml:space="preserve">  </tspan></text><text class="cls-3" transform="translate(322.57 106.91) scale(1.05 1)">f </text><text class="cls-4" transform="translate(172.89 158.23)">indoor,ou<tspan class="cls-5" x="169.33" y="0">t</tspan><tspan x="184.34" y="0">door pla</tspan><tspan class="cls-6" x="329.34" y="0">n</tspan><tspan class="cls-7" x="351.22" y="0">ts &amp; landscaping</tspan><tspan class="cls-8" x="639.72" y="0">​</tspan></text><path class="cls-9" d="M536.09,308.76c5.37-6.77,3.63-17.6,3.63-17.6s-10.45.15-15.82,6.91-3.63,17.6-3.63,17.6S530.72,315.53,536.09,308.76Z" transform="translate(-226.93 -291.16)"/><text class="cls-10" transform="translate(383.39 106.91) scale(1.05 1)">l<tspan class="cls-11" x="35.5" y="0">o</tspan><tspan class="cls-12" x="113.34" y="0">we</tspan><tspan class="cls-13" x="298.53" y="0">r</tspan><tspan class="cls-14" x="348.06" y="0">s</tspan></text><path class="cls-15" d="M313.4,291.81s-2.16,6.85.67,11.7,9.55,5.9,9.55,5.9,2.16-6.85-.66-11.71S313.4,291.81,313.4,291.81Z" transform="translate(-226.93 -291.16)"/><path class="cls-15" d="M301.63,310.71s3.71-5.12,2.66-10.11-6.46-7.94-6.46-7.94-3.71,5.12-2.66,10.11S301.63,310.71,301.63,310.71Z" transform="translate(-226.93 -291.16)"/><path class="cls-15" d="M351.15,327.44c4.07-5.51,2.33-14.16,2.33-14.16s-8.34.27-12.41,5.79-2.33,14.16-2.33,14.16S347.08,333,351.15,327.44Z" transform="translate(-226.93 -291.16)"/><path class="cls-15" d="M345.13,363.28s2.87-8.31-.43-14.37-11.51-7.59-11.51-7.59-2.88,8.31.42,14.38S345.13,363.28,345.13,363.28Z" transform="translate(-226.93 -291.16)"/><path class="cls-15" d="M367.83,355.66c1.17-5.57-3-11.29-3-11.29s-6,3.32-7.2,8.9,3,11.28,3,11.28S366.67,361.23,367.83,355.66Z" transform="translate(-226.93 -291.16)"/><path class="cls-15" d="M322.05,366.92c5,3.43,12.2,1.06,12.2,1.06s-.92-7.94-5.93-11.36-12.21-1.06-12.21-1.06S317,363.49,322.05,366.92Z" transform="translate(-226.93 -291.16)"/><path class="cls-15" d="M349.92,373.72c3.88-2.06,5.13-7.73,5.13-7.73s-5-2.32-8.91-.25-5.13,7.73-5.13,7.73S346,375.78,349.92,373.72Z" transform="translate(-226.93 -291.16)"/><path class="cls-15" d="M367,390.68c3.77,2.3,8.91.28,8.91.28s-.95-5.73-4.71-8-8.91-.28-8.91-.28S363.28,388.39,367,390.68Z" transform="translate(-226.93 -291.16)"/><path class="cls-15" d="M368.71,405.16c4.48-1.66,6.59-7.63,6.59-7.63s-5.16-3.26-9.64-1.6-6.6,7.64-6.6,7.64S364.22,406.83,368.71,405.16Z" transform="translate(-226.93 -291.16)"/><path class="cls-15" d="M330.59,377.06s-3.44,4.53-2.58,9.05,5.66,7.29,5.66,7.29,3.44-4.53,2.59-9S330.59,377.06,330.59,377.06Z" transform="translate(-226.93 -291.16)"/><path class="cls-15" d="M332.36,304.39c-4.52,2.35-6.05,8.92-6.05,8.92s5.82,2.75,10.35.4,6-8.91,6-8.91S336.89,302,332.36,304.39Z" transform="translate(-226.93 -291.16)"/><path class="cls-15" d="M370.57,373.79c4.08,1.56,8.81-1.39,8.81-1.39s-1.89-5.46-6-7-8.82,1.39-8.82,1.39S366.48,372.24,370.57,373.79Z" transform="translate(-226.93 -291.16)"/><path class="cls-15" d="M297.56,363.22c3.26-4.54,1.76-11.58,1.76-11.58s-6.79.32-10.06,4.85-1.77,11.58-1.77,11.58S294.29,367.75,297.56,363.22Z" transform="translate(-226.93 -291.16)"/><path class="cls-15" d="M285.45,406.53c4.74-.91,7.74-6.53,7.74-6.53s-4.67-4.13-9.41-3.22-7.74,6.53-7.74,6.53S280.71,407.44,285.45,406.53Z" transform="translate(-226.93 -291.16)"/><path class="cls-15" d="M329.58,398.73c0-5.1-4.61-9.28-4.61-9.28s-4.7,4.1-4.73,9.21,4.6,9.28,4.6,9.28S329.54,403.84,329.58,398.73Z" transform="translate(-226.93 -291.16)"/><path class="cls-15" d="M297.86,393.12s4.49,1.78,7.79-.21,4.14-7,4.14-7-4.49-1.78-7.78.21S297.86,393.12,297.86,393.12Z" transform="translate(-226.93 -291.16)"/><path class="cls-15" d="M329.22,346.5s-1.33-5.51-5.16-7.46-8.71.42-8.71.42,1.32,5.52,5.15,7.46S329.22,346.5,329.22,346.5Z" transform="translate(-226.93 -291.16)"/><path class="cls-15" d="M368.79,335c-3.74-1.9-8.49.41-8.49.41s1.29,5.38,5,7.27,8.49-.41,8.49-.41S372.52,336.94,368.79,335Z" transform="translate(-226.93 -291.16)"/><path class="cls-15" d="M363.24,408.59s-2.58,3.52-1.88,7,4.42,5.51,4.42,5.51,2.58-3.51,1.88-6.95S363.24,408.59,363.24,408.59Z" transform="translate(-226.93 -291.16)"/><path class="cls-15" d="M322.56,425.21c1.45-4.87-1.83-10.31-1.83-10.31s-5.63,2.45-7.08,7.32,1.83,10.31,1.83,10.31S321.11,430.07,322.56,425.21Z" transform="translate(-226.93 -291.16)"/><path class="cls-15" d="M344.19,437.58c4.62-1.42,7.08-7.33,7.08-7.33s-5-3.61-9.67-2.19-7.08,7.32-7.08,7.32S339.56,439,344.19,437.58Z" transform="translate(-226.93 -291.16)"/><path class="cls-15" d="M328.39,436.21c-5.81-2.54-12.85,1.37-12.85,1.37s2.39,8,8.19,10.58,12.85-1.37,12.85-1.37S334.19,438.75,328.39,436.21Z" transform="translate(-226.93 -291.16)"/><path class="cls-15" d="M300.91,430s-4.59-4.24-9.34-3.44-7.88,6.35-7.88,6.35,4.59,4.24,9.34,3.44S300.91,430,300.91,430Z" transform="translate(-226.93 -291.16)"/><path class="cls-15" d="M311.79,444c-1.05-5-6.46-7.94-6.46-7.94s-3.7,5.12-2.65,10.1,6.46,7.94,6.46,7.94S312.84,449,311.79,444Z" transform="translate(-226.93 -291.16)"/><path class="cls-15" d="M335.4,427.27c4.63-1.42,7.08-7.33,7.08-7.33s-5-3.61-9.67-2.19-7.08,7.32-7.08,7.32S330.78,428.68,335.4,427.27Z" transform="translate(-226.93 -291.16)"/><path class="cls-15" d="M357,402.39s2.87-8.31-.42-14.37-11.52-7.59-11.52-7.59-2.87,8.31.43,14.38S357,402.39,357,402.39Z" transform="translate(-226.93 -291.16)"/><path class="cls-15" d="M271.78,419.78s-4.93-5.9-10.81-5.73-10.48,6.38-10.48,6.38,4.93,5.9,10.81,5.73S271.78,419.78,271.78,419.78Z" transform="translate(-226.93 -291.16)"/><path class="cls-15" d="M250.57,408.47c2.72.21,5.44.53,8.15.88,7.78,1,15.53,2.32,22.86,5.3-9.05,6.19-17.22,13.93-22.44,24.06a.57.57,0,0,0,.12.75l.6.33a.49.49,0,0,0,.7-.13c5.4-10.48,14-18.38,23.51-24.58a.55.55,0,0,0,0-.93.57.57,0,0,0-.33-.48c-10.07-4.49-21.19-5.86-32-6.91a58.43,58.43,0,0,0-18.7.95.53.53,0,0,0-.4.62c.05.23.1.47.16.7a.5.5,0,0,0,.58.42,54.21,54.21,0,0,1,16.3-1c-1.72,0-5.69.45-8.12,3.17-3.15,3.55-2.47,9.66-2.47,9.66s5.8.37,9-3.17C251.09,414.7,250.62,409,250.57,408.47Z" transform="translate(-226.93 -291.16)"/><path class="cls-15" d="M270,408.45s2.87-8.31-.42-14.37S258,386.49,258,386.49s-2.87,8.31.43,14.37S270,408.45,270,408.45Z" transform="translate(-226.93 -291.16)"/><path class="cls-15" d="M239.13,391.14c-1.16,5.57,3,11.28,3,11.28s6-3.32,7.2-8.89-3-11.29-3-11.29S240.29,385.56,239.13,391.14Z" transform="translate(-226.93 -291.16)"/><path class="cls-15" d="M290.85,391.24s-.92-7.94-5.93-11.37-12.21-1.05-12.21-1.05.93,7.93,5.94,11.36S290.85,391.24,290.85,391.24Z" transform="translate(-226.93 -291.16)"/><path class="cls-15" d="M266,373.33s-5-2.32-8.91-.25-5.14,7.73-5.14,7.73,5,2.31,8.91.25S266,373.33,266,373.33Z" transform="translate(-226.93 -291.16)"/><path class="cls-15" d="M235.73,363.86c3.76,2.29,8.91.28,8.91.28s-1-5.73-4.72-8-8.91-.28-8.91-.28S232,361.57,235.73,363.86Z" transform="translate(-226.93 -291.16)"/><path class="cls-15" d="M276.37,369.74s3.44-4.54,2.59-9.05-5.67-7.3-5.67-7.3-3.44,4.54-2.59,9.05S276.37,369.74,276.37,369.74Z" transform="translate(-226.93 -291.16)"/><path class="cls-15" d="M274.6,442.41c4.53-2.35,6-8.92,6-8.92s-5.82-2.76-10.35-.41-6.05,8.92-6.05,8.92S270.07,444.76,274.6,442.41Z" transform="translate(-226.93 -291.16)"/><path class="cls-15" d="M256.91,434.87c3.36-.11,6-4.25,6-4.25s-2.83-4-6.2-3.88-6,4.25-6,4.25S253.54,435,256.91,434.87Z" transform="translate(-226.93 -291.16)"/><path class="cls-15" d="M233.56,381.41c4.08,1.55,8.81-1.39,8.81-1.39s-1.89-5.46-6-7-8.82,1.4-8.82,1.4S229.47,379.86,233.56,381.41Z" transform="translate(-226.93 -291.16)"/><path class="cls-15" d="M313,376.24s-4.54-5.37-9.92-5.18-9.56,5.89-9.56,5.89,4.54,5.38,9.92,5.18S313,376.24,313,376.24Z" transform="translate(-226.93 -291.16)"/><path class="cls-15" d="M298.59,341.91c4.61,1,9.22-3,9.22-3s-2.86-5.52-7.47-6.48-9.22,3-9.22,3S294,341,298.59,341.91Z" transform="translate(-226.93 -291.16)"/><path class="cls-15" d="M292.9,443.28c-2.83-4.86-9.56-5.89-9.56-5.89s-2.15,6.84.67,11.7,9.55,5.9,9.55,5.9S295.72,448.14,292.9,443.28Z" transform="translate(-226.93 -291.16)"/><path class="cls-15" d="M282.87,345.19c-2.52,4.36-.58,10.48-.58,10.48s6-.94,8.54-5.29.57-10.48.57-10.48S285.38,340.84,282.87,345.19Z" transform="translate(-226.93 -291.16)"/><path class="cls-15" d="M293.31,324.58c1.45-4.87-1.82-10.31-1.82-10.31s-5.63,2.45-7.08,7.32,1.82,10.31,1.82,10.31S291.86,329.45,293.31,324.58Z" transform="translate(-226.93 -291.16)"/><path class="cls-15" d="M231.48,350.87s4.93,2.09,8.62,0,4.76-7.62,4.76-7.62-4.93-2.09-8.62,0S231.48,350.87,231.48,350.87Z" transform="translate(-226.93 -291.16)"/><path class="cls-15" d="M308.67,360.59c-3-1.54-6.8.27-6.8.27s1,4.32,4,5.86,6.8-.26,6.8-.26S311.65,362.14,308.67,360.59Z" transform="translate(-226.93 -291.16)"/><path class="cls-15" d="M263.4,303.94s-4.77,4-4.9,9.11,4.44,9.38,4.44,9.38,4.77-4,4.9-9.12S263.4,303.94,263.4,303.94Z" transform="translate(-226.93 -291.16)"/><path class="cls-15" d="M241,323.19s.57,7.57,5.19,11.05,11.54,1.54,11.54,1.54-.56-7.58-5.18-11S241,323.19,241,323.19Z" transform="translate(-226.93 -291.16)"/><path class="cls-15" d="M286.86,309c2.24-4.52-.08-10.49-.08-10.49s-5.95,1.35-8.19,5.87.08,10.49.08,10.49S284.62,313.54,286.86,309Z" transform="translate(-226.93 -291.16)"/><path class="cls-15" d="M315.4,320.19c4.75-.8,7.87-6.34,7.87-6.34s-4.59-4.24-9.34-3.44-7.87,6.34-7.87,6.34S310.64,321,315.4,320.19Z" transform="translate(-226.93 -291.16)"/><path class="cls-15" d="M274.15,329.05c4.63-1.42,7.08-7.32,7.08-7.32s-5-3.62-9.67-2.2-7.08,7.33-7.08,7.33S269.53,330.47,274.15,329.05Z" transform="translate(-226.93 -291.16)"/><path class="cls-15" d="M250,344.4s-2.87,8.31.43,14.38,11.52,7.58,11.52,7.58,2.87-8.31-.43-14.37S250,344.4,250,344.4Z" transform="translate(-226.93 -291.16)"/><path class="cls-15" d="M380,377.67c0-.23-.1-.46-.14-.69a.52.52,0,0,0-.59-.43c-19.79,4.38-41.43,3-60.1-5.51a.5.5,0,0,0-.65.32c-.07.15-.13.31-.19.46a82.37,82.37,0,0,1-6.4-31.9.54.54,0,0,0-.46-.58h-.74a.53.53,0,0,0-.55.49A85.79,85.79,0,0,0,318,375.35c-8.35,5.92-10.31,16.4-11.15,26.4a1,1,0,1,0,2,.18c.76-9.09,2.35-19.2,10-24.66a113.91,113.91,0,0,0,19.69,28.89.41.41,0,0,0,.1.09.41.41,0,0,0,.61,0l.52-.56a.56.56,0,0,0,.06-.75,111.39,111.39,0,0,1-21.06-32.14A92.66,92.66,0,0,0,348,380.26a105.16,105.16,0,0,0,31.6-2A.55.55,0,0,0,380,377.67Z" transform="translate(-226.93 -291.16)"/><path class="cls-15" d="M354.23,377.75l.6.33a.61.61,0,0,0,.25.06.44.44,0,0,0,.44-.27,42.74,42.74,0,0,1,23.07-21.11.54.54,0,0,0,.34-.66c-.07-.23-.14-.45-.22-.68a.5.5,0,0,0-.62-.36,44.56,44.56,0,0,0-24,22A.56.56,0,0,0,354.23,377.75Z" transform="translate(-226.93 -291.16)"/><path class="cls-15" d="M324.22,327.91a.43.43,0,0,0,.42.42h.16l.67-.08a.55.55,0,0,0,.4-.63A63.86,63.86,0,0,1,330.48,296a.57.57,0,0,0-.3-.69l-.61-.3a.51.51,0,0,0-.65.32A65.68,65.68,0,0,0,324.22,327.91Z" transform="translate(-226.93 -291.16)"/><path class="cls-15" d="M371.94,408.15c0-.26,0-.52,0-.78a.53.53,0,0,0-.46-.58c-24.23-1.58-50.45-1.24-70.68,15a.58.58,0,0,0-.06.76l.45.62a.42.42,0,0,0,.55.15.43.43,0,0,0,.16-.09c11-8.79,23.75-12.8,37-14.36A41.42,41.42,0,0,0,357.33,433l.12.05a.39.39,0,0,0,.58-.18l.33-.62a.56.56,0,0,0-.12-.75,39.7,39.7,0,0,1-17.6-22.77c3.19-.32,6.41-.5,9.63-.59-.53,1-3.26,6.21-1.83,11,1.58,5.24,7.66,7.86,7.66,7.86s3.52-5.88,1.93-11.12c-1.36-4.52-6-7.08-7.33-7.71,6.94-.17,13.9.12,20.69.56A.52.52,0,0,0,371.94,408.15Z" transform="translate(-226.93 -291.16)"/><path class="cls-15" d="M318.42,452.89l.64-.2a.54.54,0,0,0,.41-.62c-3.83-13.38-13.5-25.25-24.56-32.7,1.1.11,6.21.45,9.36-2.62,3.55-3.45,3.28-9.9,3.28-9.9s-6-.85-9.59,2.59c-3.27,3.19-3.29,8.92-3.28,9.78-.67-.45-1.34-.89-2-1.3l-.46-.26a.49.49,0,0,0-.7.13c-.15.18-.3.37-.44.56a.55.55,0,0,0,.12.74A57.68,57.68,0,0,1,304.8,430a48.73,48.73,0,0,0-7.49,25,.78.78,0,0,0,0,.16.43.43,0,0,0,.44.42h.67a.52.52,0,0,0,.55-.48,46.84,46.84,0,0,1,7-23.8,56,56,0,0,1,11.84,21.11C317.9,452.72,318.13,453,318.42,452.89Zm.39-.67v0Z" transform="translate(-226.93 -291.16)"/><path class="cls-15" d="M226.94,369.12c0,.24.09.47.14.7a.52.52,0,0,0,.59.43,102.67,102.67,0,0,1,21.82-2.42,43.85,43.85,0,0,1-19.55,24.06.54.54,0,0,0-.24.71c.1.21.2.42.31.63a.48.48,0,0,0,.67.25,45.66,45.66,0,0,0,20.58-25.62v0a91.4,91.4,0,0,1,36.5,7.91.51.51,0,0,0,.65-.31c.06-.16.12-.31.19-.47a82.25,82.25,0,0,1,6.39,31.9c0,.28.17.58.46.58l.74,0a.53.53,0,0,0,.55-.49c.23-25.14-12-48.81-28.3-66.35l-.11-.08a.39.39,0,0,0-.6,0l-.53.55a.58.58,0,0,0-.06.76A110.71,110.71,0,0,1,288.21,374a92.39,92.39,0,0,0-29.27-7.48,104.55,104.55,0,0,0-31.6,2A.53.53,0,0,0,226.94,369.12Z" transform="translate(-226.93 -291.16)"/><path class="cls-15" d="M276.78,451.5l.62.29a.49.49,0,0,0,.64-.31,65.79,65.79,0,0,0,4.71-32.59.44.44,0,0,0-.43-.42.42.42,0,0,0-.16,0l-.67.09a.54.54,0,0,0-.4.62,63.87,63.87,0,0,1-4.6,31.64A.56.56,0,0,0,276.78,451.5Z" transform="translate(-226.93 -291.16)"/><path class="cls-15" d="M235,338.64c0,.27,0,.53-.05.79a.54.54,0,0,0,.46.58c24.24,1.58,50.45,1.23,70.68-15a.57.57,0,0,0,.07-.75l-.46-.62a.41.41,0,0,0-.55-.15.48.48,0,0,0-.16.08c-11,8.8-23.74,12.8-37,14.37a41.48,41.48,0,0,0-18.4-24.08.67.67,0,0,0-.12-.06.4.4,0,0,0-.58.19l-.33.62a.57.57,0,0,0,.12.74,39.79,39.79,0,0,1,17.61,22.77c-10.21,1.05-20.67.71-30.76.05A.52.52,0,0,0,235,338.64Z" transform="translate(-226.93 -291.16)"/><path class="cls-15" d="M370.5,330.56a.36.36,0,0,0-.08-.12.42.42,0,0,0-.47-.17,134.84,134.84,0,0,1-23.14,3c-9.94.38-20.65-.24-29.77-4.87a54,54,0,0,1-14.91-11.56l0,0a48.69,48.69,0,0,0,7.5-25.05.41.41,0,0,0,0-.16.43.43,0,0,0-.44-.42h-.67a.51.51,0,0,0-.54.49,46.87,46.87,0,0,1-7,23.85,56.62,56.62,0,0,1-11.8-21.17c-.08-.25-.31-.52-.59-.43l-.65.2a.54.54,0,0,0-.4.63c2.8,9.8,9.11,19,16.12,25.89,6,5.84,12.94,10.32,20.87,12.4a70.68,70.68,0,0,0,17.74,2.09c2.83,6.71,9.28,9.31,15.58,11.06.86.24,1.35-1.13.48-1.37-5.74-1.6-11.7-3.8-14.52-9.71,1.55,0,3.09-.06,4.63-.14a139.23,139.23,0,0,0,22.06-3,.55.55,0,0,0,.36-.76Z" transform="translate(-226.93 -291.16)"/></svg>